HIERARCHY
ROOT Hips
{
  OFFSET -32.5998 29.0326 120.673
  CHANNELS 6 Xposition Yposition Zposition Zrotation Xrotation Yrotation
  JOINT LeftUpLeg
  {
    OFFSET 8.64259 1.95398 -2.38835
    CHANNELS 3 Zrotation Xrotation Yrotation
    JOINT LeftLeg
    {
      OFFSET 43.7702 0 0
      CHANNELS 3 Zrotation Xrotation Yrotation
      JOINT LeftFoot
      {
        OFFSET 40.6238 0 0
        CHANNELS 3 Zrotation Xrotation Yrotation
        JOINT LeftToeBase
        {
          OFFSET 12.7242 0 0
          CHANNELS 3 Zrotation Xrotation Yrotation
          End Site
          {
            OFFSET 0 0 0
          }
        }
      }
    }
  }
  JOINT RightUpLeg
  {
    OFFSET -8.2249 1.95398 -2.59336
    CHANNELS 3 Zrotation Xrotation Yrotation
    JOINT RightLeg
    {
      OFFSET 43.5653 0 0
      CHANNELS 3 Zrotation Xrotation Yrotation
      JOINT RightFoot
      {
        OFFSET 40.6238 0 0
        CHANNELS 3 Zrotation Xrotation Yrotation
        JOINT RightToeBase
        {
          OFFSET 12.7242 0 0
          CHANNELS 3 Zrotation Xrotation Yrotation
          End Site
          {
            OFFSET 0 0 0
          }
        }
      }
    }
  }
  JOINT Spine
  {
    OFFSET 0.165834 0.87714 6.61349
    CHANNELS 3 Zrotation Xrotation Yrotation
    JOINT Spine1
    {
      OFFSET 7.38963 1.71661e-005 0
      CHANNELS 3 Zrotation Xrotation Yrotation
      JOINT Spine2
      {
        OFFSET 11.9445 1.14441e-005 0
        CHANNELS 3 Zrotation Xrotation Yrotation
        JOINT Spine3
        {
          OFFSET 14.7254 4.19617e-005 0
          CHANNELS 3 Zrotation Xrotation Yrotation
          JOINT Spine4
          {
            OFFSET 10.9679 0 0
            CHANNELS 3 Zrotation Xrotation Yrotation
            JOINT RightShoulder
            {
              OFFSET 2.46616 -1.6653 3.69651
              CHANNELS 3 Zrotation Xrotation Yrotation
              JOINT RightArm
              {
                OFFSET 13.0012 0 0
                CHANNELS 3 Zrotation Xrotation Yrotation
                JOINT RightForeArm
                {
                  OFFSET 28.7848 1.62311e-005 0
                  CHANNELS 3 Zrotation Xrotation Yrotation
                  JOINT RightHand
                  {
                    OFFSET 26.5688 1.62095e-005 0
                    CHANNELS 3 Zrotation Xrotation Yrotation
                    End Site
                    {
                      OFFSET 0 0 0
                    }
                  }
                }
              }
            }
            JOINT LeftShoulder
            {
              OFFSET 2.38034 -1.29275 -3.7523
              CHANNELS 3 Zrotation Xrotation Yrotation
              JOINT LeftArm
              {
                OFFSET 16.3182 6.07031e-005 0
                CHANNELS 3 Zrotation Xrotation Yrotation
                JOINT LeftForeArm
                {
                  OFFSET 27.0901 0 0
                  CHANNELS 3 Zrotation Xrotation Yrotation
                  JOINT LeftHand
                  {
                    OFFSET 24.5451 1.51738e-005 0
                    CHANNELS 3 Zrotation Xrotation Yrotation
                    End Site
                    {
                      OFFSET 0 0 0
                    }
                  }
                }
              }
            }
            JOINT Neck
            {
              OFFSET 5.0226 -0.0266342 0
              CHANNELS 3 Zrotation Xrotation Yrotation
              JOINT Head
              {
                OFFSET 6.69364 2.86102e-005 0
                CHANNELS 3 Zrotation Xrotation Yrotation
                End Site
                {
                  OFFSET 0 0 0
                }
              }
            }
          }
        }
      }
    }
  }
}
MOTION
Frames:	10
Frame Time:	0.0416667
-218.379 99.501 -185.225 -99.4266 42.66 -81.7084 -172.703 4.48094 89.9508 -21.8385 6.53477 -1.48494 69.0706 5.80703 1.96379 21.2298 -1.95168 -2.46024 168.819 2.48097 85.8927 -20.5628 -4.78185 2.59725 66.2946 -3.62618 -1.85662 21.5958 1.04105 7.08572 0.300276 8.65376 -89.8803 9.56588 0.652693 0.187327 -2.10492 0.6603 0.158414 -24.641 0.566209 0.37483 -4.62837 0.566212 0.37483 90.8143 -26.7216 -106.381 44.4286 -14.8728 -2.44778 -11.0642 -0.378959 -31.5813 -10.3129 0.831393 -15.1931 -86.1582 -49.5784 84.43 -15.5577 24.3668 -7.48813 11.209 -1.40321 -24.9296 -5.13707 -0.0583927 -5.70138 -29.4291 3.24761 0.690718 -11.6633 3.38659 0.607556 
-218.046 99.4459 -185.37 -99.8874 43.5375 -82.0496 -173.111 4.26806 89.2324 -21.8456 5.67045 -1.32736 68.9296 5.73677 2.22547 20.553 -3.47331 0.0426551 169.345 2.41268 85.7269 -20.8441 -4.89919 1.82879 67.0708 -4.046 -1.19292 22.1025 1.2774 5.67614 0.425544 8.57007 -89.869 9.73364 0.907602 0.18756 -1.937 0.914978 0.147419 -24.4742 0.809255 0.451673 -4.46156 0.809263 0.451667 91.769 -26.3082 -104.534 45.5565 -14.7107 -2.52073 -20.1583 -16.7906 -34.0947 -7.87627 -0.121205 -3.90067 -87.0035 -51.3203 83.4356 -13.6762 24.2454 -9.27491 11.0172 -1.18525 -22.4193 -2.98347 -0.0952998 -3.87817 -28.7846 2.83532 0.956914 -13.0901 2.95248 0.932016 
-217.353 99.4368 -186.282 -101.363 42.5388 -80.7547 -172.297 3.54683 90.5646 -22.7537 7.43274 -1.34537 69.2345 6.03176 2.11229 21.6056 -2.9736 -0.0461547 169.75 0.824384 86.77 -20.9182 -3.4169 1.74557 67.6949 -4.29547 -0.750327 21.757 1.38689 5.77215 0.315385 8.63246 -90.0159 9.60901 0.621619 -0.079151 -2.0618 0.617566 -0.106442 -24.5981 0.616683 0.111346 -4.58545 0.616677 0.111337 91.9474 -26.3684 -104.133 44.9799 -14.971 -2.37501 -20.1731 -16.1058 -34.5841 -7.59674 -0.0389908 -4.88596 -87.0626 -52.0461 83.4645 -13.5134 25.0655 -10.3558 11.046 -0.993682 -22.8074 -3.36056 -0.0940487 -4.03962 -28.6198 2.78934 2.42654 -12.6668 3.086 0.72563 
-216.645 99.4209 -186.922 -101.72 42.8174 -80.7507 -172.058 3.44412 91.0189 -22.7452 7.28102 -1.34934 68.9283 5.91241 2.01742 22.4518 -2.27128 -0.762869 169.865 0.891709 86.998 -21.5808 -3.58808 1.77678 68.3364 -4.54745 -0.757558 20.7346 1.73804 5.96013 0.263802 8.58671 -90.0472 9.70082 0.504592 -0.133089 -1.97005 0.498263 -0.155179 -24.506 0.521259 0.0247194 -4.49334 0.521278 0.0247193 91.2628 -26.3341 -105.594 43.7885 -14.9703 -1.17924 -18.2471 -12.4498 -34.8643 -9.33935 -0.100215 -4.16452 -87.9064 -53.1538 82.4165 -14.5458 23.2043 -9.21378 13.5552 2.19459 -25.3285 -4.70434 -0.0955337 -4.08707 -28.1059 3.24566 3.51661 -13.608 3.69074 0.284156 
-216.011 99.5665 -187.528 -102.013 43.6731 -80.9573 -172.044 2.71999 91.0115 -21.6543 6.47232 -1.35508 68.6314 5.60477 1.36877 22.2163 -2.96234 0.468792 170.088 0.570924 87.1261 -20.9345 -4.28612 1.55384 68.3404 -4.66551 -1.00272 20.251 1.93244 5.96314 0.279187 8.53086 -90.0357 9.8125 0.540381 -0.113903 -1.85834 0.534868 -0.137582 -24.3944 0.54964 0.0537721 -4.38175 0.549642 0.0537754 92.0705 -25.4174 -104.223 46.2237 -14.0356 -2.67355 -18.4793 -14.7322 -32.7891 -9.37946 -0.0817843 -4.3815 -88.2631 -53.5159 81.9603 -15.4335 22.2965 -8.42418 14.3446 3.01196 -26.0972 -5.7303 -0.0867356 -4.49924 -27.7537 3.18572 2.83599 -12.9215 3.37162 2.46842 
-215.408 99.6842 -187.95 -101.921 44.2616 -81.0965 -172.417 2.3334 91.0949 -20.43 5.58178 -0.952263 67.9784 5.02533 1.03339 23.2017 -2.51636 0.425097 170.44 0.488226 87.5755 -20.3903 -4.26101 1.44775 68.3542 -4.79349 -0.934574 20.1105 1.98616 5.97193 0.229142 8.4556 -89.9972 9.96279 0.457973 -0.031957 -1.70807 0.456142 -0.0520868 -24.2439 0.446398 0.107166 -4.23121 0.446397 0.107167 91.0459 -27.7798 -105.483 43.6777 -14.2824 -1.91857 -17.5484 -13.7543 -32.0077 -8.94787 -0.0519798 -4.75464 -88.1419 -52.4721 81.9543 -17.2334 22.596 -7.67875 13.7871 2.92788 -24.5388 -5.04587 -0.0820922 -4.67946 -26.1196 4.00561 2.67488 -14.7093 4.17406 1.81396 
-214.935 99.7664 -188.462 -101.621 44.503 -81.6247 -172.398 2.17883 91.1842 -19.6243 5.51705 -1.01408 67.4737 4.56942 0.812047 23.6611 -2.48456 0.777846 170.534 0.679261 87.6817 -20.3021 -4.27506 1.43169 68.4195 -4.9308 -0.867982 20.1832 2.01578 5.79287 0.149092 8.38262 -90.02 10.1088 0.288058 -0.0635628 -1.56215 0.284974 -0.0761812 -24.0976 0.293843 0.0259543 -4.08491 0.293822 0.0259452 92.6175 -27.2827 -102.414 44.0184 -16.5091 -3.79031 -16.3689 -14.7453 -29.4686 -9.75802 -0.0685135 -4.57358 -88.3429 -53.0446 81.7623 -17.6676 23.1806 -7.50195 12.9956 3.07616 -22.2349 -5.14059 -0.0816478 -4.56579 -24.9888 4.15747 2.95468 -14.6615 4.24951 2.54731 
-214.628 99.7703 -188.971 -101.565 44.6152 -81.7553 -172.116 2.01379 91.5993 -19.2416 6.02895 -1.18842 67.3038 4.53944 1.00204 24.0814 -2.28849 0.745146 170.572 0.619896 87.9166 -20.4168 -4.19722 1.5346 68.7247 -5.10296 -0.894598 19.6145 2.12075 6.16957 0.0928615 8.33933 -90.0348 10.1952 0.169251 -0.0833657 -1.47571 0.165412 -0.0907475 -24.011 0.186475 -0.0286493 -3.9983 0.186473 -0.0286514 91.2284 -28.6743 -104.781 44.0275 -13.9101 -3.13421 -17.192 -16.2855 -28.9237 -9.18079 -0.0740483 -4.46842 -88.1529 -52.9759 82.0266 -17.9169 23.8022 -7.56063 12.9828 3.75522 -21.559 -6.02946 -0.0747977 -4.87361 -25.0055 4.73704 3.29254 -14.9752 4.82424 2.97233 
-214.519 99.8424 -189.551 -101.26 44.9075 -81.9001 -172.185 1.75917 91.8065 -18.578 5.81104 -0.964917 67.0658 4.37048 0.887163 24.4009 -2.31589 1.10397 170.715 0.375601 88.2734 -19.889 -4.16614 1.60486 68.7833 -5.1722 -0.81818 19.3011 2.27512 6.08705 0.171808 8.22779 -89.9939 10.4184 0.345112 -0.0181352 -1.25254 0.343977 -0.033312 -23.788 0.334584 0.0864307 -3.77541 0.334603 0.0864266 91.7784 -27.2884 -104.154 46.3278 -14.7301 -2.19037 -16.9578 -15.6417 -29.579 -9.20183 -0.0866265 -4.30247 -88.0774 -50.9369 81.7773 -20.2715 22.6668 -6.97897 13.2822 4.1048 -21.5086 -4.5867 -0.0865478 -4.57552 -24.1068 6.20727 1.18599 -17.0022 5.75928 5.84771 
-214.651 99.8734 -190.075 -101.312 45.2989 -82.0771 -172.118 1.10978 91.7755 -17.9802 5.42853 -1.01771 66.9214 4.29632 0.863425 24.7377 -2.13858 1.03471 170.743 0.014011 88.1761 -19.6327 -4.56414 1.48007 68.9063 -5.26989 -0.921611 19.2681 2.2422 6.22382 0.163706 8.15262 -90.0627 10.5689 0.297238 -0.15104 -1.10201 0.290314 -0.163986 -23.6374 0.328891 -0.0547239 -3.62478 0.328916 -0.0547288 91.6628 -27.915 -104.167 45.7329 -15.5619 -2.33543 -16.3416 -15.6321 -28.5533 -9.44836 -0.0787798 -4.4275 -88.2662 -53.0231 81.8706 -18.8802 23.9909 -6.33 13.3306 3.60113 -22.8184 -6.17301 -0.0755064 -4.83875 -24.0033 7.83042 4.68025 -16.1916 7.69861 5.93491 
